<?xml version="1.0" encoding="UTF-8" standalone="no"?>
<!DOCTYPE svg PUBLIC "-//W3C//DTD SVG 1.1//EN"
 "http://www.w3.org/Graphics/SVG/1.1/DTD/svg11.dtd">
<!-- Generated by graphviz version 13.0.1 (0)
 -->
<!-- Title: pastafarianism Pages: 1 -->
<svg width="171pt" height="188pt"
 viewBox="0.00 0.00 171.00 188.00" xmlns="http://www.w3.org/2000/svg" xmlns:xlink="http://www.w3.org/1999/xlink">
<g id="graph0" class="graph" transform="scale(1 1) rotate(0) translate(4 184)">
<title>pastafarianism</title>
<polygon fill="white" stroke="none" points="-4,4 -4,-184 167.07,-184 167.07,4 -4,4"/>
<!-- Life -->
<g id="node1" class="node">
<title>Life</title>
<polygon fill="orange" stroke="black" points="100.1,-180 46.1,-180 46.1,-144 100.1,-144 100.1,-180"/>
<text xml:space="preserve" text-anchor="middle" x="73.1" y="-159.07" font-family="Times,serif" font-size="9.00">Life</text>
</g>
<!-- Inverter -->
<g id="node2" class="node">
<title>Inverter</title>
<ellipse fill="ghostwhite" stroke="black" cx="32.1" cy="-90" rx="32.1" ry="18"/>
<text xml:space="preserve" text-anchor="middle" x="32.1" y="-87.08" font-family="Times,serif" font-size="9.00">Inverter</text>
</g>
<!-- Life&#45;&gt;Inverter -->
<g id="edge1" class="edge">
<title>Life&#45;&gt;Inverter</title>
<path fill="none" stroke="black" d="M62.96,-143.7C58.33,-135.78 52.73,-126.23 47.59,-117.44"/>
<polygon fill="black" stroke="black" points="50.67,-115.79 42.6,-108.93 44.63,-119.33 50.67,-115.79"/>
</g>
<!-- Timeout -->
<g id="node4" class="node">
<title>Timeout</title>
<ellipse fill="ghostwhite" stroke="black" cx="116.1" cy="-90" rx="31.66" ry="18"/>
<text xml:space="preserve" text-anchor="middle" x="116.1" y="-87.08" font-family="Times,serif" font-size="9.00">Timeout</text>
</g>
<!-- Life&#45;&gt;Timeout -->
<g id="edge3" class="edge">
<title>Life&#45;&gt;Timeout</title>
<path fill="none" stroke="black" d="M83.73,-143.7C88.72,-135.58 94.76,-125.74 100.27,-116.76"/>
<polygon fill="black" stroke="black" points="103.14,-118.79 105.39,-108.43 97.17,-115.12 103.14,-118.79"/>
</g>
<!-- Busy? -->
<g id="node3" class="node">
<title>Busy?</title>
<ellipse fill="gray" stroke="black" cx="28.1" cy="-18" rx="27" ry="18"/>
<text xml:space="preserve" text-anchor="middle" x="28.1" y="-15.07" font-family="Times,serif" font-size="9.00">Busy?</text>
</g>
<!-- Inverter&#45;&gt;Busy? -->
<g id="edge2" class="edge">
<title>Inverter&#45;&gt;Busy?</title>
<path fill="none" stroke="black" d="M31.11,-71.7C30.69,-64.41 30.2,-55.73 29.73,-47.54"/>
<polygon fill="black" stroke="black" points="33.23,-47.4 29.16,-37.62 26.24,-47.8 33.23,-47.4"/>
</g>
<!-- Have a Beer! -->
<g id="node5" class="node">
<title>Have a Beer!</title>
<ellipse fill="gray" stroke="black" cx="118.1" cy="-18" rx="44.97" ry="18"/>
<text xml:space="preserve" text-anchor="middle" x="118.1" y="-15.07" font-family="Times,serif" font-size="9.00">Have a Beer!</text>
</g>
<!-- Timeout&#45;&gt;Have a Beer! -->
<g id="edge4" class="edge">
<title>Timeout&#45;&gt;Have a Beer!</title>
<path fill="none" stroke="black" d="M116.59,-71.7C116.8,-64.41 117.05,-55.73 117.28,-47.54"/>
<polygon fill="black" stroke="black" points="120.78,-47.71 117.57,-37.62 113.78,-47.51 120.78,-47.71"/>
</g>
</g>
</svg>
